<?xml version="1.0" standalone="no"?>
<!DOCTYPE svg PUBLIC "-//W3C//DTD SVG 20010904//EN"
 "http://www.w3.org/TR/2001/REC-SVG-20010904/DTD/svg10.dtd">
<svg version="1.0" xmlns="http://www.w3.org/2000/svg"
 width="512.000000pt" height="512.000000pt" viewBox="0 0 512.000000 512.000000"
 preserveAspectRatio="xMidYMid meet">

<g transform="translate(0.000000,512.000000) scale(0.100000,-0.100000)"
fill="#000000" stroke="none">
<path d="M4102 5091 c166 -57 284 -130 400 -248 127 -130 201 -260 250 -441
31 -113 31 -333 0 -456 -64 -253 -233 -476 -463 -609 -56 -32 -133 -63 -214
-87 l-60 -17 69 -8 c83 -9 215 0 304 20 329 77 597 330 699 662 25 81 27 102
27 263 1 154 -2 185 -22 255 -92 318 -323 556 -642 660 -77 25 -101 28 -260
32 l-175 3 87 -29z"/>
<path d="M3094 3366 c-17 -8 -34 -21 -38 -31 -3 -9 -6 -312 -6 -674 l0 -658
23 -21 c32 -30 81 -29 112 3 l25 24 0 655 0 655 -22 25 c-30 32 -56 38 -94 22z"/>
<path d="M865 1916 c-5 -3 -32 -7 -60 -11 l-50 -7 70 -22 c142 -46 279 -129
385 -236 361 -360 372 -951 25 -1318 -125 -133 -224 -199 -387 -257 l-93 -33
60 -8 c33 -5 110 -9 170 -8 257 2 486 104 671 296 181 189 272 428 261 688
-18 426 -302 782 -712 890 -74 20 -311 38 -340 26z"/>
</g>
</svg>
